<svg>
  <symbol xmlns="http://www.w3.org/2000/svg" viewBox="0 0 384 512" id="icon-play">
    <path d="M73 39c-14.8-9.1-33.4-9.4-48.5-.9S0 62.6 0 80V432c0 17.4 9.4 33.4 24.5 41.9s33.7 8.1 48.5-.9L361 297c14.3-8.7 23-24.2 23-41s-8.7-32.2-23-41L73 39z"/></symbol>
  <symbol xmlns="http://www.w3.org/2000/svg" viewBox="0 0 320 512" id="icon-pause"><path d="M48 64C21.5 64 0 85.5 0 112V400c0 26.5 21.5 48 48 48H80c26.5 0 48-21.5 48-48V112c0-26.5-21.5-48-48-48H48zm192 0c-26.5 0-48 21.5-48 48V400c0 26.5 21.5 48 48 48h32c26.5 0 48-21.5 48-48V112c0-26.5-21.5-48-48-48H240z"/></symbol>
  <symbol xmlns="http://www.w3.org/2000/svg" viewBox="0 0 512 512" id="icon-next"><path d="M52.5 440.6c-9.5 7.9-22.8 9.7-34.1 4.4S0 428.4 0 416V96C0 83.6 7.2 72.3 18.4 67s24.5-3.6 34.1 4.4L224 214.3V256v41.7L52.5 440.6zM256 352V256 128 96c0-12.4 7.2-23.7 18.4-29s24.5-3.6 34.1 4.4l192 160c7.3 6.1 11.5 15.1 11.5 24.6s-4.2 18.5-11.5 24.6l-192 160c-9.5 7.9-22.8 9.7-34.1 4.4s-18.4-16.6-18.4-29V352z"/></symbol>
  <symbol xmlns="http://www.w3.org/2000/svg" viewBox="0 0 512 512" id="icon-prew"><path d="M459.5 440.6c9.5 7.9 22.8 9.7 34.1 4.4s18.4-16.6 18.4-29V96c0-12.4-7.2-23.7-18.4-29s-24.5-3.6-34.1 4.4L288 214.3V256v41.7L459.5 440.6zM256 352V256 128 96c0-12.4-7.2-23.7-18.4-29s-24.5-3.6-34.1 4.4l-192 160C4.2 237.5 0 246.5 0 256s4.2 18.5 11.5 24.6l192 160c9.5 7.9 22.8 9.7 34.1 4.4s18.4-16.6 18.4-29V352z"/></symbol>
  <symbol xmlns="http://www.w3.org/2000/svg" viewBox="0 0 512 512" id="icon-repeat"><path d="M0 224c0 17.7 14.3 32 32 32s32-14.3 32-32c0-53 43-96 96-96H320v32c0 12.9 7.8 24.6 19.8 29.6s25.7 2.2 34.9-6.9l64-64c12.5-12.5 12.5-32.8 0-45.3l-64-64c-9.2-9.2-22.9-11.9-34.9-6.9S320 19.1 320 32V64H160C71.6 64 0 135.6 0 224zm512 64c0-17.7-14.3-32-32-32s-32 14.3-32 32c0 53-43 96-96 96H192V352c0-12.9-7.8-24.6-19.8-29.6s-25.7-2.2-34.9 6.9l-64 64c-12.5 12.5-12.5 32.8 0 45.3l64 64c9.2 9.2 22.9 11.9 34.9 6.9s19.8-16.6 19.8-29.6V448H352c88.4 0 160-71.6 160-160z"/></symbol>
  <symbol xmlns="http://www.w3.org/2000/svg" viewBox="0 0 640 512" id="icon-volume"><path d="M533.6 32.5C598.5 85.3 640 165.8 640 256s-41.5 170.8-106.4 223.5c-10.3 8.4-25.4 6.8-33.8-3.5s-6.8-25.4 3.5-33.8C557.5 398.2 592 331.2 592 256s-34.5-142.2-88.7-186.3c-10.3-8.4-11.8-23.5-3.5-33.8s23.5-11.8 33.8-3.5zM473.1 107c43.2 35.2 70.9 88.9 70.9 149s-27.7 113.8-70.9 149c-10.3 8.4-25.4 6.8-33.8-3.5s-6.8-25.4 3.5-33.8C475.3 341.3 496 301.1 496 256s-20.7-85.3-53.2-111.8c-10.3-8.4-11.8-23.5-3.5-33.8s23.5-11.8 33.8-3.5zm-60.5 74.5C434.1 199.1 448 225.9 448 256s-13.9 56.9-35.4 74.5c-10.3 8.4-25.4 6.8-33.8-3.5s-6.8-25.4 3.5-33.8C393.1 284.4 400 271 400 256s-6.9-28.4-17.7-37.3c-10.3-8.4-11.8-23.5-3.5-33.8s23.5-11.8 33.8-3.5zM301.1 34.8C312.6 40 320 51.4 320 64V448c0 12.6-7.4 24-18.9 29.2s-25 3.1-34.4-5.3L131.8 352H64c-35.3 0-64-28.7-64-64V224c0-35.3 28.7-64 64-64h67.8L266.7 40.1c9.4-8.4 22.9-10.4 34.4-5.3z"/></symbol>
  <symbol xmlns="http://www.w3.org/2000/svg" viewBox="0 0 512 512" id="icon-track-list"><path d="M40 48C26.7 48 16 58.7 16 72v48c0 13.3 10.7 24 24 24H88c13.3 0 24-10.7 24-24V72c0-13.3-10.7-24-24-24H40zM192 64c-17.7 0-32 14.3-32 32s14.3 32 32 32H480c17.7 0 32-14.3 32-32s-14.3-32-32-32H192zm0 160c-17.7 0-32 14.3-32 32s14.3 32 32 32H480c17.7 0 32-14.3 32-32s-14.3-32-32-32H192zm0 160c-17.7 0-32 14.3-32 32s14.3 32 32 32H480c17.7 0 32-14.3 32-32s-14.3-32-32-32H192zM16 232v48c0 13.3 10.7 24 24 24H88c13.3 0 24-10.7 24-24V232c0-13.3-10.7-24-24-24H40c-13.3 0-24 10.7-24 24zM40 368c-13.3 0-24 10.7-24 24v48c0 13.3 10.7 24 24 24H88c13.3 0 24-10.7 24-24V392c0-13.3-10.7-24-24-24H40z"/></symbol>
</svg>